<svg xmlns="http://www.w3.org/2000/svg" xmlns:xlink="http://www.w3.org/1999/xlink" width="128" height="128" viewBox="0 100 300 300" stroke="#ffffff" shape-rendering="geometricPrecision" image-rendering="optimizeQuality" fill-rule="evenodd" xmlns:v="https://vecta.io/nano">
<path fill="#ffffff" d="M16.5 54.5c-1.686-1.517-3.519-2.85-5.5-4-1.261.259-2.261.926-3 2 1.154 3.373 2.654 6.707 4.5 10-3.863-2.685-5.696-6.352-5.5-11 4.264-3.653 7.43-2.653 9.5 3z" opacity=".424"/>
<path fill="#0c0c0c" d="M16.5 54.5c-.073 1.527.594 2.527 2 3 .238 1.904 1.238 3.238 3 4 .238 1.904 1.238 3.238 3 4-.073 1.527.594 2.527 2 3 .238 1.904 1.238 3.238 3 4 .933 2.87 2.6 5.204 5 7 2.845 5.027 6.179 9.694 10 14 .933 2.87 2.6 5.204 5 7 5.232 8.897 11.232 17.23 18 25a131.25 131.25 0 0 0 8 13c-2.051.987-3.718 2.32-5 4l-46-63c-1.562-3.892-3.895-7.225-7-10-.933-2.87-2.6-5.204-5-7-1.846-3.293-3.346-6.627-4.5-10 .739-1.074 1.739-1.741 3-2 1.981 1.15 3.814 2.483 5.5 4z"/>
<use xlink:href="#B" fill="#d2d2d2" opacity=".416"/>
<use xlink:href="#C" fill="#c5c5c5" opacity=".525"/>
<use xlink:href="#C" x="3" y="4" fill="#d8d8d8" opacity=".435"/>
<use xlink:href="#D" fill="#dedede" opacity=".059"/>
<use xlink:href="#B" x="8" y="11" fill="#d9d9d9" opacity=".404"/>
<use xlink:href="#C" x="8" y="11" fill="#c9c9c9" opacity=".525"/>
<path fill="#d8d8d8" d="M17.5 69.5c3.105 2.775 5.438 6.108 7 10-3.105-2.775-5.438-6.108-7-10z" opacity=".486"/>
<use xlink:href="#D" x="17" y="10" fill="#d7d7d7" opacity=".294"/>
<path fill="#d9d9d9" d="M34.5 79.5c4.312 3.954 7.645 8.621 10 14-3.821-4.306-7.155-8.973-10-14z" opacity=".267"/>
<use xlink:href="#D" x="32" y="31" fill="#d8d8d8" opacity=".282"/>
<g fill="#dadada">
<path d="M49.5 100.5c6.768 7.77 12.768 16.103 18 25-6.768-7.77-12.768-16.103-18-25z" opacity=".224"/>
<path d="M67.5 125.5c3.821 4.306 7.155 8.973 10 14l-2-1a131.25 131.25 0 0 1-8-13z" opacity=".243"/>
</g><path fill="#0a0a0a" d="M75.5 138.5l2 1c-.073 1.527.594 2.527 2 3 .238 1.904 1.238 3.238 3 4-.073 1.527.594 2.527 2 3 .238 1.904 1.238 3.238 3 4 3.918 6.433 8.085 12.767 12.5 19 4.418 2.84 8.418 6.173 12 10a206.45 206.45 0 0 0 25 35c1.777 2.29 3.944 3.957 6.5 5 2.595 3.626 5.928 6.292 10 8 3.658 11.47-.676 17.303-13 17.5-3.909-4.399-7.576-8.899-11-13.5a239.07 239.07 0 0 0-20-31c-1.174-1.014-1.84-2.347-2-4-.129-4.806-2.463-7.639-7-8.5-.43-3.065-2.096-4.898-5-5.5a32.44 32.44 0 0 0-.5-8c-.383-.556-.883-.889-1.5-1l-23-34c1.282-1.68 2.949-3.013 5-4z"/>
<use xlink:href="#B" x="61" y="85" fill="#d9d9d9" opacity=".392"/>
<use xlink:href="#C" x="61" y="85" fill="#d1d1d1" opacity=".486"/>
<path fill="#e5e5e5" d="M24.5 79.5l46 63 23 34-62.5-86a101.86 101.86 0 0 1-6.5-11z" opacity=".012"/>
<use xlink:href="#B" x="66" y="92" fill="#d5d5d5" opacity=".416"/>
<use xlink:href="#C" x="66" y="92" fill="#cfcfcf" opacity=".498"/>
<path fill="#f6f6f6" d="M93.5 176.5c.617.111 1.117.444 1.5 1a32.44 32.44 0 0 1 .5 8c-.844-2.845-1.51-5.845-2-9z" opacity=".116"/>
<path fill="#ddd" d="M95.5 185.5c2.904.602 4.57 2.435 5 5.5 4.537.861 6.871 3.694 7 8.5-1.418-1.687-2.751-3.52-4-5.5-1.581-.707-3.081-1.54-4.5-2.5-.421-2.52-1.588-4.52-3.5-6z" opacity=".08"/>
<path fill="#e0e0e0" d="M87.5 153.5c4.298 4.571 8.131 9.571 11.5 15 5.02 4.022 9.686 8.356 14 13 2.735 5.133 5.735 10.133 9 15 7.402 8.559 14.568 17.226 21.5 26-2.556-1.043-4.723-2.71-6.5-5a206.45 206.45 0 0 1-25-35c-3.582-3.827-7.582-7.16-12-10-4.415-6.233-8.582-12.567-12.5-19z" opacity=".078"/>
<path fill="#ddd" d="M109.5 203.5a239.07 239.07 0 0 1 20 31c-7.411-9.815-14.078-20.148-20-31z" opacity=".047"/>
<path fill="#d2d2d2" d="M143.5 222.5a45.26 45.26 0 0 1 10 8c-4.072-1.708-7.405-4.374-10-8z" opacity=".067"/>
<path fill="#d2d2d2" d="M153.5 230.5c4.515 3.766 5.015 8.099 1.5 13-4.728 5.901-10.561 7.401-17.5 4.5a55.49 55.49 0 0 1-8-13.5c3.424 4.601 7.091 9.101 11 13.5 12.324-.197 16.658-6.03 13-17.5z" opacity=".19"/>
<defs ><path id="B" d="M16.5 54.5c1.406.473 2.073 1.473 2 3-1.406-.473-2.073-1.473-2-3z"/>
<path id="C" d="M18.5 57.5c1.762.762 2.762 2.096 3 4-1.762-.762-2.762-2.096-3-4z"/>
<path id="D" d="M12.5 62.5c2.4 1.796 4.067 4.13 5 7-2.4-1.796-4.067-4.13-5-7z"/>
</defs></svg>